<svg xmlns="http://www.w3.org/2000/svg" xmlns:xlink="http://www.w3.org/1999/xlink" xml:space="preserve" version="1.1" style="shape-rendering:geometricPrecision; text-rendering:geometricPrecision; image-rendering:optimizeQuality; fill-rule:evenodd; clip-rule:evenodd" viewBox="4329.78076171875 7259.349609375 21040.419921875 6511.275390625">
    <defs>
        <style type="text/css">
            <![CDATA[
    .fil2 {fill:#3F51B5}
    .fil0 {fill:#3F51B5;fill-rule:nonzero}
    .fil1 {fill:#FFC10D;fill-rule:nonzero}
   ]]>
        </style>
    </defs>
    <g id="Camada_x0020_1">
        <metadata id="CorelCorpID_0Corel-Layer" />
        <g id="_3040192433248">
            <path class="fil1" d="M9884.71 8433.33c7.35,-64.79 21.33,-120.23 41.87,-166.3 21.42,-48.01 49.93,-85.89 85.5,-113.56 33.78,-26.28 67.96,-45.33 102.43,-57.06 34.79,-11.86 69.99,-16.41 105.51,-13.61 35.13,2.75 67.6,11.77 97.33,27.03 29.81,15.28 56.71,36.71 80.66,64.22 25.3,29.06 41.16,62.78 47.54,101.15 6.31,37.97 3.18,79.85 -9.34,125.53l-0.13 0.33c-3.37,11.81 -8.3,31.94 -14.75,60.22 -6.49,28.58 -14.46,65.02 -23.8,109.22 -9.28,43.88 -19.34,93.97 -30.09,150.18 -10.71,55.92 -22.09,117.56 -34.08,184.8 -11.02,61.76 -24.06,133.07 -39.17,214.22 -14.96,80.3 -29.96,159.41 -44.93,237.09 -15.1,78.31 -31.31,163.07 -48.51,253.7 -12.84,67.64 -24.35,128.4 -34.56,182.69 6.2,-5.47 12.51,-10.78 18.9,-15.94 26.79,-21.63 54.83,-40.5 84.1,-56.52 29.93,-16.39 62.31,-28.69 97.07,-36.86 34.36,-8.08 70.93,-12.13 109.62,-12.13 66.53,0 125.5,12.82 176.82,38.42 51.68,25.77 95.51,64.49 131.49,116.07 35.08,50.3 63.74,107.19 85.93,170.58 22.09,63.13 37.81,132.76 47.12,208.77 9.21,75.36 12.3,153.53 9.24,234.41l0.05 0 -0.05 0.11 0 -0.11 0.05 0c-3.04,80.65 -12.24,163.81 -27.51,249.36 -15.25,85.5 -35.55,168.54 -60.81,249 -25.32,80.64 -55.59,158.58 -90.79,233.78 -35.46,75.72 -75.93,145.18 -121.35,208.27 -45.42,63.05 -95.79,119.6 -151,169.59 -56.17,50.81 -115.54,88.96 -178,114.38 -62.37,25.38 -127.81,38.09 -196.24,38.09 -98.27,0 -177.61,-32.46 -238.07,-97.36l-17.24 151.61 -0.3 2.19c-7.02,40.07 -20.13,75.84 -39.34,107.24 -19.2,31.42 -44.33,58.02 -75.25,79.71 -29.46,20.64 -59.52,36.46 -90.08,47.41 -30.73,11.01 -62.1,17.22 -94,18.6 -31.93,1.36 -61.72,-2.12 -89.32,-10.44 -27.84,-8.41 -53.3,-21.71 -76.28,-39.81 -25.09,-19.74 -42.02,-46.2 -50.77,-79.32 -8.41,-31.79 -8.93,-69.26 -1.59,-112.33l0.07 -0.48c10.46,-57.36 23.54,-129.53 39.56,-218.57 14.79,-82.12 31.2,-173.51 49.18,-274.08 16.62,-93.03 35,-197.09 55.06,-312.05 21.52,-123.34 40.66,-234.05 57.6,-333.13 19.56,-114.59 39.27,-230.16 59.06,-346.65 19.77,-116.49 39.7,-233.98 59.7,-352.38 19.01,-112.49 38,-226.81 56.91,-342.62 18.62,-114.1 35.62,-220.1 50.91,-317.74l44.73 -285.53 38.55 -245.43c12.03,-76.54 21.7,-139.78 28.95,-189.66 7.27,-49.98 12.57,-89.45 15.84,-118.3zm111.23 2342.75c-3.75,14.64 -7.34,29.8 -10.69,45.38l-0.05 0.11c-3.25,15.02 -6.37,30.84 -9.34,47.4 -3.1,17.19 -5.78,33.64 -8.07,49.39 -2.22,15.15 -4.36,31.85 -6.42,49.89 -1.32,49.05 0.1,93.94 4.3,134.55 4.21,40.6 11.18,77.26 20.93,109.89 8.93,29.98 22.03,53.45 39.23,70.32 16.99,16.68 38.32,27.22 63.94,31.58l1.6 0.29 0.36 0.08c12.71,3.4 25.93,0.73 39.6,-7.97 16.31,-10.4 33.66,-29 51.97,-55.77 19.83,-28.96 39.02,-62.47 57.51,-100.45 18.76,-38.57 36.66,-81.34 53.6,-128.24 17.08,-47.25 33.24,-97.39 48.47,-150.43 14.97,-52.22 29.08,-107.59 42.25,-166 13.28,-58.92 24.88,-115.44 34.74,-169.5 9.89,-54.14 18.37,-107.42 25.41,-159.71 6.85,-51.01 11.42,-98.14 13.65,-141.23 2.2,-42.9 2.13,-81.34 -0.22,-115.26 -2.28,-32.67 -6.71,-57.94 -13.24,-75.71 -4.86,-13.23 -10.43,-21.37 -16.65,-24.26 -18.44,-5.97 -36.79,-5.96 -54.99,0.04 -19.15,6.29 -38.72,19.26 -58.66,38.86 -21.79,21.41 -43.2,46.95 -64.15,76.55 -21.11,29.85 -41.76,63.85 -61.91,101.98 -20.54,38.9 -40.2,80.08 -58.9,123.44 -19.01,44.03 -37.19,90.41 -54.48,139.1 -17.3,48.71 -32.64,96.13 -45.98,142.17 -13.15,45.41 -24.32,89.47 -33.47,132.1l-0.34 1.41z" />
            <path class="fil1" d="M11217.5 10488.19c-7.89,23.99 -18.49,44.94 -31.81,62.78l0.07 0.07c-13.55,18.17 -29.79,32.8 -48.62,43.87 -18.03,10.57 -36.1,17.41 -54.08,20.45 -18.01,3.07 -35.98,2.29 -53.82,-2.3 -17.8,-4.57 -33.32,-12.26 -46.55,-23 -13.41,-10.88 -24.5,-24.93 -33.22,-42.06 -9.79,-19.23 -13.27,-41.36 -10.44,-66.28 2.55,-22.54 10.41,-47.16 23.5,-73.73l46.14 -110.94c-14,-21.49 -24.6,-44.46 -31.77,-68.84 -8.83,-30.05 -12.52,-62.21 -11.08,-96.39 1.37,-32.86 6.27,-65.03 14.63,-96.48 8.33,-31.36 20.08,-61.56 35.2,-90.57 15.1,-28.95 32.57,-55.78 52.38,-80.43 19.8,-24.67 42.03,-47.28 66.61,-67.77 25.3,-21.12 51.7,-37.03 79.09,-47.7 27.37,-10.65 55.58,-16.01 84.56,-16.02l0 -0.03 0.09 0.03 -0.09 0 0 -0.03 1.02 0 0.19 0.06c50.47,0.16 88.99,11.76 115.53,34.73 28.45,24.63 42.67,60.95 42.67,108.92l-0.05 0.1 0 0.65c-0.12,42.35 -6.39,87.09 -18.73,134.1 -9.67,36.8 -23.13,75.01 -40.31,114.57 5.61,1.14 11.86,1.92 18.73,2.33l0.1 0.03c19.23,1.17 43.13,-0.68 71.58,-5.5 30.37,-5.14 59.87,-9.36 88.45,-12.58 28.16,-3.17 55.93,-5.44 83.24,-6.76 28.77,-1.4 54.7,1.03 77.77,7.28 23.74,6.42 44.82,16.96 63.16,31.57 21.91,17.43 33.55,45.2 34.87,83.21 1.15,33.22 -5.81,74.7 -20.9,124.36 -14.21,46.81 -28.92,96.93 -43.99,150.23 -16.08,56.79 -32.3,115.75 -48.71,176.96 -16.66,62.23 -32.07,123.97 -46.18,185.08 -13.73,59.54 -26.08,117.98 -36.93,175.25 -10.74,56.57 -18.85,108.86 -24.3,156.8 -5.44,48.02 -8.33,91.69 -8.6,130.91 -0.24,35.92 3.54,62.13 11.3,78.48 5.57,11.73 13.73,17.61 24.49,17.61 5.42,0 14.94,-7.78 28.48,-23.31 17.84,-20.47 39.13,-52.07 63.83,-94.77 25.67,-44.38 51.89,-92.01 78.63,-142.82 26.98,-51.33 54.64,-106.12 82.91,-164.25 56.75,-116.77 109.16,-234.43 157.16,-352.91 24.02,-59.31 44.02,-111.38 59.9,-156.13 15.58,-43.88 27.2,-80.74 34.82,-110.45l0.24 -0.93c16.92,-59.37 44.15,-101.56 81.61,-126.45 17.75,-11.8 35.55,-20.31 53.26,-25.49 18,-5.25 35.97,-7.16 53.84,-5.67l0 -0.02c18.62,1.55 35.26,7.13 49.8,16.67 14.49,9.48 26.82,22.87 36.89,40.02 10.33,17.6 16.48,38.64 18.42,63.05 1.79,22.75 -0.17,48.59 -5.9,77.37l-0.66 2.81c-3.83,13.5 -10.03,33.89 -18.54,61.08 -8.23,26.31 -19.31,61.11 -33.19,104.32 -13.4,41.71 -29.04,86.82 -46.88,135.26 -17.47,47.46 -36.9,97.47 -58.21,149.97 -21.77,53.63 -44.96,107.59 -69.46,161.78 -24.96,55.2 -51.71,111.64 -80.17,169.25 -28.61,57.86 -59.39,113.87 -92.33,167.94 -33.07,54.32 -67.82,105.91 -104.14,154.71 -36.72,49.3 -74.91,94.12 -114.5,134.36 -39.59,40.23 -80.23,75.47 -121.86,105.65 -42.95,31.11 -87.31,53.83 -133.07,68.06 -45.49,14.16 -92.39,19.9 -140.62,17.23l-0.01 0.06c-56.41,-2.77 -103.88,-19.19 -142.36,-49.25 -38.61,-30.16 -67.79,-73.72 -87.46,-130.66 -18.67,-53.99 -32.23,-113.29 -40.68,-177.93 -8.37,-63.99 -11.68,-133.19 -9.93,-207.51 1.75,-74.35 7.91,-150.46 18.41,-228.32 10.49,-77.84 25.48,-158.25 44.9,-241.19 19.36,-82.72 39.99,-159.92 61.8,-231.54 16.65,-54.59 34.22,-106.59 52.72,-155.98 -9.82,0.92 -19.51,1.4 -29.05,1.4l-50.27 0c-3.55,6.62 -6.81,13.43 -9.77,20.42 -5.22,12.24 -9.58,25.18 -13.04,38.73l-0.71 2.42z" />
            <path class="fil1" d="M13290.37 10307.89c-21.82,29.53 -45.56,56.36 -71.17,80.4 -25.87,24.27 -53.74,45.86 -83.52,64.7 -28.84,18.22 -58.88,34.98 -90.08,50.2 -31.09,15.17 -62.92,28.62 -95.41,40.31 -32.37,11.65 -65.04,21.76 -97.91,30.24l0 0.07c-32.38,8.37 -65.26,15.2 -98.57,20.47 -31.69,5 -62.1,9.49 -91.18,13.43 -21.05,2.84 -40.72,5.31 -58.98,7.41 -10.37,45.26 -19.66,89.85 -27.85,133.7 -9.46,50.69 -17.69,101.66 -24.59,152.87 -6.82,50.42 -11.72,98.03 -14.68,142.68 -2.95,44.82 -4.04,87.17 -3.25,126.95 0.78,39.49 3.5,75.81 8.13,108.87 4.56,32.57 11.02,62.17 19.36,88.71 7.75,24.67 18.01,44.66 30.72,59.9 12.37,14.84 27.33,25.47 44.75,31.82l0.18 0.07c23.43,8.76 48.81,10.65 76.11,5.64 28.11,-5.17 58.31,-17.67 90.5,-37.49 33.88,-20.85 67.73,-45.72 101.51,-74.59 34.2,-29.22 68.21,-62.36 101.96,-99.32 33.83,-37.06 67.94,-77.77 102.22,-122.06 34.29,-44.29 68.16,-91.39 101.56,-141.21 33.13,-49.43 65.31,-99.09 96.46,-148.94l0.1 0.03c29.88,-47.78 58.58,-95.52 86.04,-143.15 27.39,-47.49 52.56,-92.42 75.47,-134.71 22.73,-41.94 44.15,-83.01 64.24,-123.14 19.67,-39.32 35.92,-73.01 48.69,-100.99 12.85,-28.17 22.23,-50.5 28.11,-66.92l0.43 -1.12c10.52,-26.41 22.89,-48.57 37.03,-66.44 14.97,-18.89 32.03,-33.22 51.11,-42.91 17.48,-8.89 34.29,-14.82 50.34,-17.76 16.62,-3.02 32.76,-3 48.31,0.09 16.14,3.22 30.58,10.11 43.24,20.62 12.39,10.3 22.94,23.97 31.56,40.93 9.18,18.04 13.85,38.8 13.94,62.16 0.1,22.07 -3.87,46.35 -11.89,72.72l-1.07 2.79c-6.01,15.04 -14.5,37.44 -25.42,67.09 -10.9,29.53 -24.38,66.67 -40.36,111.31 -16.28,45.41 -35.31,93.53 -57.03,144.29 -21.84,50.99 -46.38,104.7 -73.61,161.02 -27.35,56.58 -57.02,114.14 -88.95,172.58 -31.72,58.04 -65.98,117.41 -102.73,178.08 -37.17,61.38 -76.85,119.76 -118.92,175.08 -42.22,55.48 -87.42,108.63 -135.52,159.37 -48.02,50.64 -98.78,97.21 -152.2,139.62 -53.41,42.39 -109.28,80.47 -167.53,114.19 -59.22,34.29 -120.6,60.03 -184.07,77.16 -63.43,17.12 -128.85,25.7 -196.18,25.7 -165.09,0 -286.15,-67.4 -363.13,-202.18 -37.61,-65.82 -66.9,-140.1 -87.83,-222.76 -20.82,-82.27 -33.42,-172.91 -37.75,-271.85 -4.32,-98.05 -1.86,-199.83 7.36,-305.23 9.2,-105.06 25.14,-213.68 47.82,-325.8 22.73,-112.41 49.93,-220.84 81.54,-325.2 31.63,-104.46 68.04,-205.93 109.15,-304.3 41.12,-98.39 85.13,-188.29 131.97,-269.66 47.12,-81.85 97.31,-155.4 150.49,-220.58 54.36,-66.64 109.76,-116.85 166.1,-150.53 57.33,-34.28 115.45,-51.45 174.32,-51.45 55.45,0 106.59,11.18 153.28,33.51 46.7,22.33 88.88,55.71 126.44,100.11 36.56,43.21 68.09,90.27 94.54,141.13 26.38,50.71 47.56,105.07 63.51,162.98 15.87,57.63 26.93,115.98 33.11,174.93 6.21,59.11 7.56,118.87 4.07,179.22 -3.57,61.63 -13.06,116.8 -28.41,165.45 -15.78,49.97 -37.79,93.24 -65.96,129.72l-0.02 -0.03zm-339.63 -670.62c-10.63,5.12 -24.21,21.06 -40.69,47.74 -19.14,30.99 -40.3,74.18 -63.43,129.5 -23.68,56.62 -47.55,119.34 -71.55,188.03 -20.39,58.37 -40.85,120.91 -61.36,187.59 35.71,-2.17 71.83,-7.96 108.33,-17.36 21.47,-5.54 40.37,-14.05 56.6,-25.5 15.65,-11.03 28.88,-24.87 39.6,-41.4l0.49 -0.71c8.72,-12.74 16.57,-28.81 23.49,-48.1 7.3,-20.38 13.55,-44.31 18.69,-71.68 5.27,-28.05 9.31,-56.65 12.09,-85.68 2.76,-28.99 4.26,-58.23 4.46,-87.57 0.19,-29.14 -0.93,-56 -3.39,-80.5 -2.36,-23.6 -6.07,-44.97 -11.02,-64.04 -2.93,-11.26 -6,-19.8 -9.11,-25.49 -1.18,-2.16 -2.26,-3.8 -3.2,-4.83z" />
            <path class="fil1" d="M14674.62 11374.76c-14.12,77.42 -38.79,144 -73.99,199.68l-0.05 0.11c-35.59,56.28 -81.66,101.04 -138.12,134.18 -55.02,32.27 -109.85,52.69 -164.41,61.18 -54.69,8.51 -108.89,5.06 -162.54,-10.34l-0.19 -0.07c-50.33,-15.19 -97.5,-38.38 -141.42,-69.52 -43.81,-31.05 -84.41,-70.01 -121.72,-116.81 -38.5,-48.23 -64.09,-102.64 -76.71,-163.11 -12.54,-60.18 -12.11,-126.02 1.29,-197.4l-0.04 0c14.32,-79.8 37.74,-148.16 70.2,-204.99 33.16,-58.07 75.49,-103.84 126.94,-137.22 99.73,-64.73 208.91,-87.9 327.42,-69.54l0.09 0.02 2.01 0.52c58.19,15.21 110.79,39.56 157.73,72.98 47.07,33.54 88.52,76.17 124.29,127.86 36.42,52.61 60.44,110.04 71.99,172.26 11.55,62.1 10.61,128.86 -2.79,200.21l0.02 0z" />
            <path class="fil1" d="M16562.15 7279.56c82.91,-11.63 164.22,-18.26 243.75,-19.84 79.39,-1.58 157.15,1.89 233.17,10.42 76.19,8.56 150.48,22.22 222.82,40.91 72.5,18.77 143.05,42.58 211.56,71.41 67.89,28.57 133.07,60.76 195.49,96.47 62.54,35.78 122.34,75.14 179.3,117.99 56.81,42.75 111.17,89.28 163,139.58 51.67,50.12 100.4,103.6 146.14,160.34 45.91,56.97 88.72,116.72 128.33,179.15 39.54,62.32 76.08,127.59 109.56,195.75 33.22,67.67 63.42,138.21 90.53,211.5 27.14,73.41 51.25,149.65 72.27,228.64 21.08,79.27 38.24,159.69 51.43,241.23 13.16,81.34 22.46,164.38 27.85,248.95 5.39,84.63 6.9,170.26 4.51,256.78 -2.37,86.55 -8.68,174.68 -18.88,264.31 -8.09,71.25 -18.87,142.09 -32.3,212.4 -13.42,70.27 -29.49,139.83 -48.12,208.58 -18.71,69.01 -39.89,136.63 -63.48,202.78 -23.8,66.65 -50.13,132.23 -78.97,196.63 -28.76,64.22 -60.11,127.12 -94.03,188.64 -33.58,60.93 -69.52,120 -107.76,177.18 -38.38,57.4 -78.98,112.73 -121.72,165.94 -42.91,53.39 -88,104.69 -135.16,153.79 -47.6,49.54 -97.29,96.51 -148.98,140.87 -51.75,44.39 -105.57,86.22 -161.38,125.4 -55.7,39.11 -113.52,75.67 -173.38,109.63 -59.97,34.04 -121.75,65.37 -185.27,93.94 -64.12,28.85 -130.01,54.11 -197.52,75.75 -67.19,21.52 -136.4,39.54 -207.52,54 -70.7,14.39 -142.83,25.17 -216.32,32.34l0 0.06c-73.17,7.14 -148.16,10.72 -224.81,10.72 -145.84,0 -285.19,-14.13 -417.83,-42.36 -66.52,-14.15 -131.07,-31.79 -193.54,-52.9 -62.6,-21.13 -123.23,-45.78 -181.72,-73.86 -58.17,-27.91 -114.01,-58.35 -167.38,-91.21 -53.21,-32.77 -104.51,-68.34 -153.82,-106.63 -48.82,-37.93 -95.31,-78.4 -139.39,-121.36 -44.11,-42.96 -85.65,-88.25 -124.55,-135.78 -38.89,-47.51 -75.25,-97.2 -109.05,-148.98 -33.7,-51.67 -64.76,-105.31 -93.07,-160.81 -28.31,-55.5 -53.96,-112.96 -76.89,-172.26 -22.89,-59.19 -43.19,-120.57 -60.88,-184.07 -35.4,-127.03 -57.93,-257.49 -67.54,-391.24 -9.62,-133.86 -6.41,-271.41 9.64,-412.55 3.85,-33.92 8.94,-68.89 15.19,-104.81 6.28,-36.13 13.78,-73.38 22.46,-111.68 8.38,-37.02 18.09,-75.6 29.09,-115.61 10.96,-39.93 23.14,-80.97 36.46,-123.02 13.37,-42.2 27.52,-84.13 42.34,-125.76 14.51,-40.72 30.35,-82.79 47.49,-126.11 17.29,-43.7 35.07,-86.63 53.3,-128.71 18.72,-43.24 38.12,-86.2 58.15,-128.74 20.22,-42.98 41.55,-86.14 63.95,-129.42 21.98,-42.43 45.4,-85.66 70.24,-129.63 24.83,-43.95 49.89,-86.5 75.12,-127.6 25.38,-41.35 52.36,-83.56 80.85,-126.48 27.91,-42.08 56.62,-83.31 86.08,-123.66 29.39,-40.24 59.82,-79.97 91.21,-119.12 31.24,-38.93 63.03,-76.76 95.32,-113.37 32.51,-36.87 65.81,-72.87 99.8,-107.92 68.71,-70.84 139.5,-136.11 212.33,-195.74 72.83,-59.65 148.23,-114.08 226.08,-163.23 40.33,-25.46 80.66,-48.45 120.91,-68.92 40.72,-20.7 82.05,-39.28 123.94,-55.67 42,-16.44 84.76,-30.78 128.16,-42.97 43.18,-12.15 86.63,-22.03 130.25,-29.62l1.32 -0.17 1.87 -0.22 0 -0.05zm1412.56 2492.18c8.05,-70.92 13.36,-140.03 15.89,-207.22 2.53,-67.11 2.32,-133.25 -0.64,-198.29 -2.94,-64.78 -8.62,-128.53 -17,-191.17 -8.44,-63.03 -19.57,-124.69 -33.32,-184.9 -13.75,-60.13 -29.82,-118.39 -48.17,-174.64 -18.35,-56.23 -38.98,-110.45 -61.82,-162.53 -22.52,-51.32 -47.57,-101.21 -75.12,-149.57 -27.3,-47.96 -56.84,-93.88 -88.56,-137.71 -31.95,-44.13 -65.61,-85.66 -100.91,-124.51 -35.26,-38.78 -72.79,-75.59 -112.56,-110.36 -39.62,-34.63 -81.01,-66.82 -124.08,-96.48 -43.04,-29.65 -88.27,-57.13 -135.58,-82.37 -46.82,-24.99 -95.03,-46.84 -144.51,-65.43 -49.79,-18.71 -101.02,-34.3 -153.64,-46.73 -52.44,-12.39 -106.89,-21.72 -163.28,-27.99 -56.29,-6.25 -114.18,-9.39 -173.55,-9.39 -26.75,0 -54.41,3.21 -82.89,9.61 -28.62,6.42 -58.32,16.18 -89.03,29.2 -32.92,13.98 -66.78,31.54 -101.5,52.66 -34.98,21.28 -71.31,46.46 -108.92,75.48 -77.88,60.07 -153.87,129 -227.86,206.61 -74.29,77.96 -146.58,164.62 -216.79,259.96 -71.1,96.54 -137.62,198.29 -199.52,305.19 -61.83,106.78 -119.12,218.85 -171.79,336.16 -26.08,58.08 -49.63,115.65 -70.61,172.63 -21,57 -39.65,114.05 -55.91,170.98 -15.96,55.82 -29.52,111.58 -40.66,167.12 -11.12,55.51 -19.83,110.64 -26.05,165.33 -13.45,118.24 -15.84,229.72 -7.17,334.39 8.63,104.45 28.31,202.28 58.93,293.33 15.56,46.21 32.9,90.41 52.01,132.5 18.96,41.79 39.98,82.05 62.95,120.64 22.97,38.57 47.57,75.02 73.79,109.22 26.47,34.56 54.89,67.4 85.18,98.44 30.08,30.84 61.89,60.04 95.25,87.52 33.14,27.27 67.73,52.7 103.67,76.18 36.15,23.63 73.55,45.28 112.09,64.85 38.55,19.61 78.98,37.53 121.15,53.71 42.09,16.14 84.65,30.27 127.52,42.28 42.61,11.93 86.33,22.01 131.05,30.17 44.65,8.14 89.31,14.23 133.89,18.18l0.08 -0.06c45.32,4.04 91.06,6.07 137.17,6.07 102.55,0 201.23,-8.7 296.01,-26.04 94.69,-17.34 185.83,-43.4 273.36,-78.11 43.55,-17.27 85.91,-36.44 126.92,-57.39 40.97,-20.92 80.43,-43.56 118.24,-67.85 37.9,-24.35 74.46,-50.47 109.56,-78.34 35.36,-28.04 69.43,-57.93 102.12,-89.58 32.47,-31.43 63.91,-64.8 94.18,-100 29.93,-34.79 58.59,-71.31 85.89,-109.43 27.74,-38.74 53.84,-78.64 78.17,-119.62 24.6,-41.44 47.69,-84.24 69.16,-128.33 21.54,-44.22 41.21,-89.73 58.94,-136.52 17.73,-46.79 33.64,-95.02 47.64,-144.63 13.89,-49.19 25.94,-100.05 36.08,-152.46 10.12,-52.2 18.31,-105.83 24.55,-160.76z" />
            <path class="fil1" d="M18606.95 10008.93c13.21,-54.05 32.09,-101.56 56.59,-142.46 25.17,-42.07 56.18,-77.14 92.95,-105.15 35.32,-26.91 70.4,-47.84 105.21,-62.76 35.15,-15.07 70.02,-24.02 104.51,-26.76 34.51,-2.74 66.47,0.04 95.83,8.36 29.6,8.4 56.52,22.43 80.68,42.04 26.12,21.22 43.24,48.79 51.24,82.68l-0.07 0.03c7.8,32.98 6.74,71.22 -3.13,114.59l-0.08 0.21c-8.37,35.43 -17.96,73.66 -28.72,114.58 -10.89,41.39 -22.59,83.96 -35.05,127.71 -12.11,42.5 -24.53,87.02 -37.16,133.37 -12.94,47.43 -24.84,91.92 -35.58,133.21 -11.35,43.58 -21.93,86.6 -31.69,128.91 -9.38,40.7 -17.83,80.02 -25.29,117.8l4.91 -11.19c27.71,-62.96 56.26,-122.08 85.64,-177.26 29.34,-55.19 58.68,-106.48 87.94,-153.81 29.32,-47.44 58.42,-90.66 87.29,-129.56l0.79 -0.97c22.16,-27.75 47.43,-52.31 75.74,-73.59 28.05,-21.11 59.19,-39.14 93.33,-54.02 33.72,-14.71 66.53,-25.43 98.32,-32.13 32.15,-6.78 63.24,-9.51 93.18,-8.16 30.63,1.37 58.13,7.4 82.39,18.03l0 0.01c24.8,10.85 45.97,26.45 63.44,46.65 19.55,22.61 29.6,50.3 30.09,82.96 0.44,30.61 -7.77,64.95 -24.61,102.99l-0.01 -0.01c-8.41,21.24 -17.43,48.94 -27,82.93 -9.79,34.69 -20.15,76.12 -31.03,124.2 -10.98,48.54 -20.52,96.64 -28.56,144.18 -8.11,47.87 -15,96.62 -20.63,146.11 -5.6,49.21 -9.76,95.15 -12.44,137.69 -2.69,42.34 -3.95,81.68 -3.79,117.93 0.14,33.8 2.57,58.58 7.23,74.15 2.15,7.21 3.39,10.85 3.65,10.85 18.62,0 50.01,-24.75 94.15,-74.22 24.13,-27.06 48.92,-57.32 74.24,-90.64l0.03 0.03c25.41,-33.46 50.98,-69.48 76.64,-107.99 25.83,-38.79 51.13,-79.02 75.82,-120.6 24.43,-41.15 48.43,-83.96 71.92,-128.31 23.21,-43.83 43.76,-85 61.59,-123.37 17.54,-37.8 32.26,-72.24 44.04,-103.24l-0.02 0c8.08,-26.63 18.87,-49.29 32.28,-67.9 14.09,-19.58 30.89,-34.34 50.37,-44.23 17.51,-8.89 34.3,-14.81 50.35,-17.75 16.62,-3.03 32.76,-3 48.31,0.08 16.14,3.22 30.58,10.11 43.24,20.63 12.39,10.29 22.94,23.96 31.56,40.92 9.18,18.04 13.84,38.79 13.94,62.17 0.1,22.05 -3.88,46.34 -11.89,72.72l-0.07 -0.02c-11.01,37.02 -27.15,80.27 -48.38,129.75 -20.97,48.86 -47.19,104.35 -78.6,166.39 -31.36,61.95 -64.79,123.13 -100.2,183.44 -35.69,60.74 -73.35,120.6 -112.94,179.51 -39.74,59.11 -81,115.03 -123.71,167.67 -42.83,52.79 -86.68,101.75 -131.48,146.81 -46.43,46.69 -91.33,81.92 -134.59,105.61 -44.52,24.38 -87.36,36.58 -128.41,36.58 -134.57,0 -226.75,-43.17 -276.51,-129.46 -23.83,-41.34 -42.56,-85.42 -56.11,-132.15 -13.49,-46.58 -21.87,-95.95 -25.1,-148.03 -3.14,-50.98 -3.58,-101.25 -1.29,-150.8 2.3,-49.98 7.32,-99.06 15,-147.17 8.04,-50.24 13.08,-89.79 15.1,-118.61 -10.88,15.51 -22.56,35.55 -34.97,60.09 -14.93,29.48 -30.12,61.97 -45.51,97.37 -15.47,35.6 -30.81,73.3 -45.97,113.04 -15.24,39.97 -30.23,81.38 -44.92,124.12 -14.1,41.07 -28.19,84.28 -42.2,129.58 -13.82,44.64 -25.45,85.2 -34.87,121.56 -9.49,36.64 -16.99,69.85 -22.49,99.59l-0.41 2.15c-9.2,37.52 -23.96,70.64 -44.19,99.27 -20.09,28.43 -45.51,52.12 -76.22,70.97 -29.25,17.95 -59.01,31.39 -89.22,40.26 -30.34,8.9 -61.37,13.36 -92.99,13.36 -63.8,0 -119.57,-19.37 -167.29,-58.11 -25.79,-20.94 -43.32,-48.18 -52.54,-81.66 -8.96,-32.5 -9.76,-70.33 -2.44,-113.38l-0.05 0c7.02,-42.86 13.5,-90.11 19.35,-141.67 5.98,-52.66 11.34,-108.88 15.98,-168.61 7.2,-92.36 12.12,-154.69 14.79,-188.16l0.08 0c6.58,-82.47 12.02,-149.97 15.91,-197.78 5.4,-66.41 11.37,-133.11 17.86,-199.96 6.46,-66.74 13.31,-131.62 20.47,-194.59 7.36,-64.72 16.56,-126.1 27.55,-184.1 11.03,-58.11 24.01,-113.31 38.88,-165.5l0.02 0z" />
            <path class="fil1" d="M20481.66 8532.65c7.36,-64.78 21.34,-120.23 41.88,-166.3 21.42,-48.01 49.93,-85.89 85.5,-113.56 33.87,-26.35 68.35,-45.43 103.36,-57.16 35.2,-11.79 71.17,-16.3 107.85,-13.53 36.32,2.76 69.61,11.74 99.71,26.88 30.22,15.2 57.4,36.68 81.54,64.39 25.3,29.06 41.16,62.78 47.54,101.15 6.29,37.96 3.18,79.85 -9.33,125.53l-0.03 -0.02c-7.66,29.86 -18.42,74.66 -32.26,134.23 -13.27,57.14 -30.15,131.47 -50.68,223.22 -20.55,91.85 -41,187.46 -61.27,286.78 -20.15,98.71 -41.5,207.72 -64.04,326.92l0.02 0c-22.14,117.21 -43.76,235.28 -64.81,354.1 -21.65,122.25 -42.69,244.66 -63.03,367.11 -20.35,122.46 -39.13,242.29 -56.32,359.31 -17.02,115.81 -32.02,226.05 -44.99,330.63 -13.08,105.51 -22.9,201.08 -29.39,286.63 -6.49,85.59 -9.78,161.83 -9.83,228.62l-25.75 3.82 25.71 -3.71 0 0.67 0 0.25c0.01,63.6 4.99,110.71 14.87,141.25 7.36,22.76 16.76,34.15 28.11,34.15l0.03 0c15.4,0 49.42,-50.38 102.02,-151.08 29.41,-56.28 58.92,-115.7 88.48,-178.15 29.72,-62.8 60.16,-129.98 91.24,-201.46 31.15,-71.67 61.21,-141.9 90.06,-210.6 29.34,-69.84 57.53,-138.12 84.47,-204.76 27.39,-67.7 50.12,-123.51 68.16,-167.33 17.84,-43.35 31.08,-75 39.69,-94.89 8.14,-26.3 19.2,-48.68 33.09,-67.07 14.75,-19.49 32.43,-34.15 53.02,-43.89 18.63,-8.83 36.66,-14.37 54.06,-16.58 17.85,-2.29 35.08,-1.14 51.59,3.45 16.43,4.56 31.29,12.23 44.5,22.97 13.1,10.62 24.51,24.2 34.15,40.64 10.94,18.64 16.11,40.21 15.5,64.62 -0.57,22.43 -6.22,47.13 -16.92,74.06 -18.72,50.57 -40.87,111.48 -66.41,182.72 -25.17,70.27 -54.05,151.66 -86.56,244.18 -32.44,92.24 -67.57,183.9 -105.36,274.89 -37.89,91.25 -78.36,181.66 -121.38,271.15 -43.56,90.61 -89.66,175.22 -138.25,253.71 -48.81,78.82 -100.36,151.95 -154.62,219.34 -55.92,69.44 -114.77,121.72 -176.44,156.75 -62.24,35.35 -127.07,53.04 -194.46,53.04 -64.15,0 -118.25,-19.98 -162.27,-59.89 -43.36,-39.31 -76.33,-97.66 -98.88,-174.95 -21.71,-74.4 -37.52,-158.68 -47.35,-252.73 -9.83,-93.92 -13.83,-197.47 -11.97,-310.58 1.86,-112.63 8.02,-231.85 18.48,-357.55 10.41,-125.26 25.15,-257.08 44.16,-395.35 18.69,-136.02 38.86,-272.22 60.44,-408.47 21.56,-136.2 44.06,-269.22 67.46,-398.95 22.78,-126.46 45.77,-251.67 68.92,-375.76 23.2,-124.29 44.93,-238.56 65.19,-342.85 21.02,-108.25 38.36,-203.11 51.93,-284.49 13.58,-81.37 23.55,-149.9 29.87,-205.5z" />
            <path class="fil1" d="M21201.84 10136.98c15.05,-132.32 56.37,-224.43 123.87,-276.23 65.77,-50.48 134.09,-70.11 204.89,-58.89 34.71,5.49 66.57,17.3 95.47,35.38 28.72,17.97 54.4,42.16 76.9,72.47 23.45,31.6 37.96,67.04 43.43,106.24 5.45,39.02 1.96,81.25 -10.49,126.62l-0.3 1.04c-13.94,45.91 -28.15,96.96 -42.52,153.07 -14.35,55.92 -29.34,118.62 -44.93,188.06 -15.66,69.64 -29.55,136.67 -41.62,201.04 -12.15,64.67 -23,129.22 -32.53,193.58 -9.34,63.02 -16.27,121.49 -20.77,175.3 -4.52,53.76 -6.65,103.08 -6.42,147.86 0.2,41.46 4.5,71.86 12.83,91.11 5.95,13.75 14.12,20.64 24.46,20.64 16.01,0 44.05,-34.32 84.06,-102.93 22.69,-38.91 45.48,-81.2 68.31,-126.79 23.24,-46.38 46.41,-95.86 69.48,-148.29 23.86,-54.27 46.79,-107.56 68.69,-159.77l0.04 -0.12c22.59,-53.8 44.41,-107.09 65.43,-159.76 21.17,-52.99 38.92,-99.71 53.23,-140.08 13.84,-39.08 24.54,-72.59 32.04,-100.45l0.17 -0.58 0.94 -2.57c10.64,-28.74 23.45,-53.13 38.38,-73.08 15.77,-21.08 33.77,-37.18 53.86,-48.17 18.84,-10.3 37.16,-17 54.91,-20 18.29,-3.1 35.85,-2.32 52.6,2.34 16.73,4.63 31.79,12.8 45.04,24.41 12.9,11.27 24.15,26 33.69,44.1 10.42,19.73 15.3,41.93 14.62,66.49 -0.65,23.21 -6.38,48.34 -17.15,75.33 -5.96,14.93 -14.07,36.62 -24.3,64.95 -10.03,27.79 -22.46,62.97 -37.22,105.49 -14.57,41.99 -30.95,86.64 -49.04,133.83 -18.06,47.06 -37.6,96.08 -58.63,146.9 -42.61,103.1 -90.95,209.54 -144.93,319.25 -27.34,55.56 -56.14,108.15 -86.31,157.65 -30.03,49.26 -61.49,95.48 -94.37,138.62 -33.31,43.67 -67.32,82.26 -101.97,115.67 -35.11,33.87 -71.19,62.8 -108.15,86.79 -77.33,50.19 -157.25,61.41 -239.69,33.64l-0.36 -0.14c-59.47,-21.42 -109.2,-52.02 -149.06,-91.74 -40.31,-40.18 -70.57,-89.57 -90.74,-148.17 -19.49,-56.63 -33.14,-117.95 -40.87,-183.9 -7.71,-65.74 -9.57,-135.77 -5.59,-210.05 3.9,-72.67 10.71,-149.25 20.41,-229.65 9.7,-80.48 22.13,-163.28 37.23,-248.3 15.38,-86.65 29.06,-170.68 40.96,-252 11.98,-81.82 22.68,-163.93 32.02,-246.21zm916.04 -1051.94c1.29,30.93 -1.25,61.01 -7.62,90.19 -6.37,29.27 -16.63,57.49 -30.66,84.53 -13.55,26.08 -29.69,50.94 -48.37,74.48l-0.04 0.11c-18.5,23.28 -39.36,45.13 -62.53,65.43 -22.79,19.96 -47.28,38.39 -73.41,55.21 -26.08,16.81 -53.44,31.82 -81.96,44.97 -28.4,13.09 -57.38,24.31 -86.88,33.6 -29.11,9.17 -58.75,16.43 -88.89,21.73l-0.81 0.2c-57.16,7.88 -113.1,8.52 -167.78,1.93 -54.44,-6.56 -107.57,-20.42 -159.3,-41.49 -53.98,-21.98 -94.89,-53.3 -122.62,-93.88 -28.12,-41.19 -42.57,-91.42 -43.24,-150.6l-0.04 0.02c-2.56,-61.24 7.3,-118.29 29.58,-171.04 22.2,-52.65 56.46,-100.4 102.67,-143.16 44.74,-41.42 95.33,-75.85 151.66,-103.27 55.74,-27.1 117.01,-47.24 183.68,-60.37l0.1 0.03c66.86,-13.15 129.44,-16.78 187.6,-10.82 58.78,5.99 112.97,21.67 162.44,46.92 50.91,25.98 89.51,60.28 115.74,102.85 26.42,42.87 39.97,93.71 40.64,152.45l0.04 -0.02z" />
            <path class="fil1" d="M22093.46 10008.93c13.21,-54.05 32.09,-101.56 56.59,-142.46 25.17,-42.07 56.18,-77.14 92.96,-105.15 71.12,-54.18 141.05,-84.04 209.7,-89.52 34.49,-2.74 66.48,0.04 95.84,8.36 29.6,8.4 56.52,22.43 80.69,42.04 26.12,21.22 43.23,48.79 51.23,82.68l-0.07 0.03c7.8,32.98 6.75,71.22 -3.12,114.59l-0.09 0.21c-8.37,35.43 -17.95,73.66 -28.72,114.58 -10.91,41.41 -22.6,83.99 -35.06,127.71 -12.1,42.48 -24.5,86.97 -37.14,133.37 -12.95,47.43 -24.85,91.92 -35.59,133.21 -11.35,43.58 -21.93,86.6 -31.69,128.91 -9.37,40.7 -17.83,80.02 -25.28,117.8l4.9 -11.19c27.71,-62.96 56.26,-122.08 85.64,-177.26 29.35,-55.19 58.68,-106.48 87.94,-153.81 29.32,-47.44 58.42,-90.66 87.29,-129.56l0.79 -0.97c22.16,-27.75 47.43,-52.31 75.74,-73.59 28.06,-21.11 59.19,-39.14 93.33,-54.02 33.72,-14.71 66.53,-25.43 98.32,-32.13 32.13,-6.78 63.21,-9.51 93.19,-8.16 30.62,1.37 58.12,7.4 82.38,18.03l0 0.01c24.81,10.85 45.97,26.45 63.44,46.65 19.55,22.61 29.61,50.3 30.07,82.96 0.46,30.61 -7.75,64.95 -24.58,102.99l-0.02 -0.01c-8.41,21.24 -17.43,48.94 -27,82.93 -9.79,34.69 -20.14,76.12 -31.02,124.2 -10.98,48.54 -20.53,96.64 -28.57,144.18 -8.11,47.87 -15,96.62 -20.63,146.11 -5.59,49.21 -9.75,95.15 -12.44,137.69 -2.68,42.34 -3.95,81.68 -3.79,117.93 0.14,33.8 2.57,58.58 7.23,74.15 2.16,7.21 3.39,10.85 3.65,10.85 18.62,0 50.01,-24.75 94.15,-74.22 24.13,-27.06 48.92,-57.32 74.25,-90.64l0.02 0.03c25.42,-33.46 50.99,-69.48 76.64,-107.99 25.84,-38.79 51.14,-79.02 75.81,-120.6 24.45,-41.15 48.42,-83.96 71.92,-128.31 23.21,-43.83 43.76,-84.99 61.6,-123.37 17.55,-37.8 32.26,-72.21 44.04,-103.24l-0.01 0c8.08,-26.63 18.86,-49.29 32.27,-67.9 14.09,-19.58 30.89,-34.34 50.37,-44.23 17.51,-8.89 34.3,-14.81 50.35,-17.75 16.62,-3.03 32.76,-3 48.31,0.08 16.13,3.2 30.57,10.1 43.23,20.63 12.39,10.29 22.95,23.96 31.58,40.92 9.17,18.04 13.83,38.79 13.93,62.17 0.1,22.05 -3.88,46.34 -11.89,72.72l-0.07 -0.02c-11.01,37.02 -27.14,80.26 -48.38,129.74 -20.98,48.85 -47.2,104.34 -78.59,166.4 -31.37,61.95 -64.79,123.13 -100.21,183.44 -35.69,60.74 -73.35,120.6 -112.94,179.51 -39.74,59.11 -80.99,115.03 -123.71,167.67 -42.82,52.79 -86.67,101.75 -131.48,146.81 -46.43,46.69 -91.33,81.92 -134.6,105.61 -44.5,24.38 -87.36,36.58 -128.41,36.58 -134.56,0 -226.74,-43.17 -276.5,-129.46 -23.85,-41.37 -42.58,-85.45 -56.1,-132.15 -13.51,-46.58 -21.89,-95.94 -25.1,-148.03 -3.14,-50.98 -3.58,-101.25 -1.3,-150.8 2.3,-49.98 7.32,-99.06 15,-147.17 8.04,-50.24 13.09,-89.79 15.1,-118.61 -10.88,15.51 -22.55,35.55 -34.97,60.09 -14.93,29.48 -30.11,61.97 -45.51,97.37 -15.47,35.6 -30.81,73.3 -45.97,113.04 -15.24,39.97 -30.23,81.38 -44.91,124.12 -14.11,41.07 -28.2,84.28 -42.21,129.58 -13.82,44.64 -25.45,85.2 -34.87,121.56 -9.49,36.64 -16.99,69.85 -22.48,99.59l-0.42 2.15c-9.2,37.52 -23.96,70.64 -44.19,99.27 -20.08,28.43 -45.51,52.12 -76.22,70.97 -29.23,17.95 -59.01,31.39 -89.22,40.26 -30.34,8.9 -61.36,13.36 -93,13.36 -63.79,0 -119.56,-19.37 -167.27,-58.11 -25.8,-20.94 -43.33,-48.18 -52.55,-81.66 -8.96,-32.5 -9.76,-70.33 -2.44,-113.38l-0.04 0c7.01,-42.86 13.49,-90.11 19.34,-141.67 5.98,-52.66 11.34,-108.88 15.98,-168.61 7.21,-92.36 12.12,-154.69 14.79,-188.16l0.09 0c6.57,-82.47 12.01,-149.97 15.91,-197.78 5.39,-66.41 11.36,-133.11 17.85,-199.96 6.46,-66.74 13.31,-131.62 20.47,-194.59 7.36,-64.72 16.56,-126.1 27.56,-184.1 11.02,-58.11 24,-113.31 38.88,-165.5l0.01 0z" />
            <path class="fil1" d="M24775.3 10407.32c-21.8,29.53 -45.54,56.35 -71.13,80.4 -25.89,24.28 -53.76,45.87 -83.54,64.7 -28.84,18.23 -58.88,34.97 -90.09,50.2 -31.08,15.17 -62.91,28.62 -95.41,40.31 -32.38,11.65 -65.05,21.77 -97.92,30.25l0 0.07c-32.37,8.36 -65.25,15.2 -98.56,20.47 -31.71,5 -62.12,9.49 -91.18,13.42 -21.05,2.84 -40.73,5.31 -58.98,7.41 -10.36,45.26 -19.65,89.85 -27.84,133.7 -9.46,50.7 -17.69,101.66 -24.61,152.87 -6.8,50.43 -11.7,98.03 -14.65,142.69 -2.96,44.81 -4.05,87.16 -3.26,126.95 0.78,39.49 3.5,75.81 8.13,108.86 4.56,32.57 11.02,62.18 19.36,88.71 7.74,24.67 18.01,44.66 30.72,59.9 12.38,14.85 27.32,25.47 44.73,31.82l0.19 0.07c23.42,8.77 48.81,10.65 76.11,5.64 28.11,-5.17 58.29,-17.67 90.51,-37.49 33.88,-20.85 67.73,-45.72 101.51,-74.59 34.2,-29.24 68.21,-62.35 101.96,-99.31 33.84,-37.07 67.93,-77.78 102.22,-122.07 34.29,-44.29 68.17,-91.39 101.56,-141.21 33.13,-49.43 65.31,-99.09 96.47,-148.93l0.09 0.03c29.88,-47.79 58.59,-95.53 86.04,-143.16 27.39,-47.51 52.57,-92.46 75.5,-134.76 22.7,-41.89 44.12,-82.97 64.21,-123.08 19.66,-39.32 35.92,-73.02 48.68,-101 12.85,-28.17 22.24,-50.5 28.12,-66.92l0.43 -1.12c10.52,-26.41 22.9,-48.57 37.03,-66.44 14.97,-18.89 32.02,-33.22 51.09,-42.91 17.5,-8.88 34.31,-14.83 50.36,-17.75 16.59,-3.03 32.73,-3 48.3,0.08 16.13,3.22 30.56,10.11 43.25,20.63 12.39,10.29 22.94,23.96 31.56,40.92 9.18,18.04 13.84,38.79 13.94,62.16 0.07,22.07 -3.89,46.34 -11.91,72.73l-1.06 2.78c-6.01,15.07 -14.52,37.5 -25.47,67.2 -10.85,29.49 -24.32,66.6 -40.3,111.2 -16.28,45.41 -35.31,93.54 -57.03,144.29 -21.83,51 -46.38,104.7 -73.61,161.03 -27.36,56.59 -57.03,114.15 -88.96,172.57 -31.72,58.04 -65.99,117.43 -102.72,178.08 -37.17,61.38 -76.85,119.76 -118.92,175.08 -42.22,55.48 -87.42,108.64 -135.51,159.38 -48.03,50.64 -98.78,97.2 -152.21,139.61 -53.41,42.39 -109.28,80.47 -167.53,114.2 -59.23,34.29 -120.63,60.03 -184.09,77.16 -63.43,17.11 -128.83,25.69 -196.16,25.69 -165.1,0 -286.15,-67.4 -363.14,-202.17 -37.6,-65.84 -66.89,-140.11 -87.81,-222.78 -20.83,-82.24 -33.43,-172.88 -37.76,-271.83 -4.32,-98.09 -1.85,-199.88 7.36,-305.28 9.19,-105.04 25.14,-213.67 47.82,-325.75 45.29,-223.91 108.87,-433.78 190.67,-629.5 41.13,-98.41 85.15,-188.31 132,-269.68 47.13,-81.85 97.3,-155.39 150.48,-220.57 54.36,-66.64 109.76,-116.86 166.08,-150.54 57.33,-34.28 115.47,-51.44 174.34,-51.44 55.45,0 106.58,11.18 153.27,33.51 46.7,22.33 88.88,55.71 126.45,100.12 36.56,43.21 68.09,90.27 94.54,141.12 26.38,50.71 47.56,105.07 63.5,162.99 15.87,57.62 26.93,115.96 33.12,174.93 6.2,59.1 7.56,118.86 4.07,179.22 -3.57,61.62 -13.06,116.8 -28.43,165.44 -15.78,49.97 -37.78,93.24 -65.95,129.72l-0.03 -0.03zm-339.63 -670.61c-10.64,5.15 -24.24,21.08 -40.67,47.72 -19.13,31.01 -40.3,74.2 -63.43,129.52 -23.67,56.62 -47.55,119.33 -71.54,188.02 -20.4,58.37 -40.86,120.92 -61.37,187.59 35.71,-2.17 71.83,-7.95 108.33,-17.36 21.46,-5.54 40.35,-14.04 56.59,-25.49 15.65,-11.04 28.88,-24.86 39.62,-41.41l0.48 -0.71c8.71,-12.74 16.56,-28.79 23.48,-48.1 7.3,-20.38 13.55,-44.32 18.71,-71.67 5.27,-28.06 9.3,-56.65 12.08,-85.69 2.76,-28.99 4.25,-58.22 4.45,-87.57 0.19,-29.16 -0.94,-56.04 -3.39,-80.54 -2.41,-23.91 -6.06,-45.27 -10.93,-63.96 -2.82,-10.87 -5.92,-19.38 -9.25,-25.43 -1.2,-2.22 -2.27,-3.86 -3.16,-4.92z" />
            <path class="fil1" d="M5978.54 9448.79c3.13,-30.19 7.89,-59.86 14.22,-88.92 6.35,-29.14 14.35,-57.75 23.89,-85.74 9.58,-28.02 20.71,-55.13 33.33,-81.22l0.07 -0.08c12.61,-26.07 26.86,-51.4 42.66,-75.84 14.64,-22.66 30.14,-44.62 46.4,-65.82 16.2,-21.09 33.09,-41.33 50.61,-60.57 17.75,-19.49 36.03,-37.93 54.78,-55.27 18.78,-17.37 38.39,-33.95 58.71,-49.69 20.12,-15.58 40.55,-30.18 61.15,-43.69 20.85,-13.7 42,-26.4 63.34,-38.04 21.18,-11.57 42.92,-22.31 65.15,-32.16 22.32,-9.89 44.89,-18.84 67.6,-26.75 22.15,-7.7 44.48,-14.63 66.89,-20.67 21.94,-5.9 43.58,-10.85 64.83,-14.78 22.29,-4.13 43.67,-7.21 64.05,-9.16 20.77,-1.99 41.45,-3 61.97,-3 13.75,0 27.17,0.48 40.24,1.42l0.05 0.07c14.04,1.02 27.53,2.48 40.42,4.32 12.79,1.83 25.83,4.26 39.02,7.17 12.8,2.85 25.55,6.21 38.19,10.06l0.02 -0.03c17.46,5.3 33.05,12.26 46.67,20.82 6.04,3.78 11.72,7.91 17.05,12.38l1.7 -2.24 17.38 21.18c13.82,16.87 23.59,35.93 29.26,57.11l0.04 -0.01c5.64,21.1 7.15,44.12 4.58,68.95 -2.67,25.84 -12.21,53.87 -28.51,84.04 -15.47,28.58 -37.13,59.28 -64.9,92.04 -24.96,29.44 -55.86,56.78 -92.58,81.89 -35.62,24.38 -76.69,46.67 -123.04,66.73l-7.75 4.91 -0.02 -0.04 -13.35 8.55 0.03 0.06 -21.89 14.18 -0.03 -0.04 -20.14 13.23 -0.02 -0.03c-14.15,9.38 -29.05,19.97 -44.61,31.75 -15.46,11.67 -31.03,24.13 -46.65,37.31l-0.07 0.08c-7.35,6.19 -14.31,12.34 -20.76,18.37 -6.25,5.83 -12.84,12.34 -19.6,19.34 -7.13,7.38 -13.48,14.25 -18.99,20.52l0.01 0.02c-2.84,3.25 -5.68,6.56 -8.48,9.93l-8.65 11c-4.42,5.62 -8.04,10.57 -10.72,14.71 -2.49,3.86 -4.52,7.36 -6.03,10.51 1.28,1.85 2.86,3.94 4.71,6.22 7.1,8.8 17.04,17.95 29.74,27.37 13.27,9.84 29.14,19.69 47.5,29.42l0.02 -0.03c20.39,10.8 41.87,20.2 64.36,28.12 22.8,8.04 46.99,14.78 72.46,20.16l0.01 -0.06c26.28,5.54 53.81,9.71 82.52,12.42l0.01 -0.06c29.35,2.75 60.23,4.15 92.6,4.15 46.85,0 94.8,-3.59 143.82,-10.78l0.07 -0.08c49.41,-7.22 99.75,-18.04 150.97,-32.41 51.47,-14.43 100.98,-31.71 148.47,-51.74 47.64,-20.11 93.13,-42.91 136.37,-68.38 20.2,-11.89 40.1,-24.89 59.6,-38.93l0.07 -0.08c19.53,-14.05 37.91,-28.59 55.02,-43.52 17.45,-15.24 34.04,-31.13 49.66,-47.58 15.29,-16.13 30.12,-33.36 44.4,-51.6 12.64,-16.16 23.93,-32.8 33.84,-49.81 9.88,-16.99 18.48,-34.48 25.69,-52.38 7.12,-17.64 13,-35.88 17.56,-54.59 4.69,-19.12 8.05,-38.68 10.13,-58.62l-0.06 0c3.81,-36.75 3.55,-70.22 -0.75,-100.29 -4.21,-29.39 -12.39,-55.74 -24.49,-78.95 -7.12,-13.67 -14.85,-26.66 -23.11,-38.87l0.01 -0.01c-8.52,-12.56 -17.6,-24.43 -27.17,-35.49 -9.68,-11.18 -20.33,-22.08 -31.91,-32.63 -11.42,-10.4 -23.6,-20.31 -36.49,-29.64 -14.09,-10.19 -28.42,-19.81 -42.91,-28.76 -14.89,-9.2 -29.89,-17.73 -44.87,-25.53 -14.58,-7.56 -30.43,-15.05 -47.46,-22.38 -16.07,-6.93 -33.03,-13.56 -50.84,-19.85 -18.81,-6.65 -36.44,-12.51 -52.8,-17.49 -17.54,-5.36 -35.01,-10.29 -52.32,-14.75 -16.46,-4.21 -33.63,-8.18 -51.4,-11.86 -17.19,-3.53 -33.98,-6.6 -50.25,-9.1 -17.31,-2.68 -34.13,-5.11 -50.28,-7.21 -16.7,-2.19 -32.42,-4.08 -47.05,-5.6l-0.07 0.07c-16.38,-1.71 -31.55,-3.12 -45.42,-4.2 -15.36,-1.18 -28.31,-2.01 -38.78,-2.41l-38.36 -1.48 -29.26 -1 -0.01 0.08c-6.11,-0.18 -11.86,-0.32 -17.23,-0.39l-0.13 0 -20.68 -0.12 0 -0.02c-63,0 -128.74,3.99 -197.14,11.94 -68.99,8.03 -140.37,20 -214.02,35.88l-0.07 0.08c-37.09,7.98 -74.01,17.01 -110.68,27.04 -36.42,9.93 -73.55,21.18 -111.24,33.63 -36.99,12.22 -74.08,25.55 -111.17,39.93 -37.61,14.57 -74.74,30.04 -111.33,46.34 -37.23,16.58 -74.19,34.13 -110.8,52.66 -36.8,18.6 -73.1,38.09 -108.78,58.38 -35.53,20.21 -71.25,41.71 -107.03,64.38 -35.57,22.54 -70.96,46.13 -106.07,70.7 -34.74,24.32 -68.48,49.52 -101.17,75.53 -26.56,21.15 -52.6,43.01 -78.05,65.51l0.03 0.05 -17.09 15.46c-31.64,28.64 -61.76,57.65 -90.3,86.92 -28.77,29.51 -56.95,60.33 -84.49,92.38 -27.09,31.5 -53.13,63.99 -78,97.33 -25.01,33.53 -48.78,67.76 -71.22,102.61 -22.29,34.62 -43.7,70.51 -64.14,107.59 -20.54,37.23 -39.81,75.07 -57.77,113.41 -35.28,75.37 -64.24,155.05 -86.8,238.97 -22.57,83.93 -38.62,171.78 -48.13,263.43 -4.54,43.8 -7.36,86.63 -8.41,128.31 -1.05,41.51 -0.35,81.55 2.09,120.01 2.42,38.12 6.59,75.37 12.5,111.69 5.91,36.4 13.47,71.27 22.62,104.47 9.51,34.59 20.27,68.4 32.21,101.37 11.89,32.79 24.87,64.38 38.88,94.67 13.96,30.16 29.21,59.57 45.64,88.07 16.29,28.25 33.94,55.8 52.86,82.56 19.43,27.47 39.3,53.3 59.56,77.41 20.59,24.5 42.37,48.27 65.24,71.21 22.67,22.76 46.28,44.47 70.78,65.13 24.23,20.42 49.75,40.11 76.48,58.98 27.66,19.53 55.31,38.01 82.87,55.3 28.04,17.59 55.85,34.01 83.35,49.14 27.93,15.38 56.55,30.07 85.79,44.01 29.19,13.91 58.86,27.06 88.93,39.36 29.01,11.86 58.99,23.3 89.93,34.28 30.6,10.85 60.78,20.76 90.51,29.71 30.2,9.08 60.2,17.33 89.92,24.67 29.72,7.34 59.9,14 90.49,19.91 29.7,5.76 59.67,10.91 89.77,15.43 30.31,4.53 59.16,8.25 86.42,11.03 27.69,2.85 55.44,5.02 83.17,6.5 27.26,1.43 54.25,2.16 80.85,2.16 62.35,0 124.89,-2.23 187.51,-6.63 62.31,-4.38 125.1,-11.02 188.18,-19.88 64.15,-9.01 127.73,-20.13 190.64,-33.26 63.48,-13.27 127.18,-28.78 191.06,-46.47 63.34,-17.54 126.89,-37.48 190.58,-59.77 63.82,-22.32 127.03,-46.76 189.49,-73.21 63.26,-26.78 125.98,-55.69 188.04,-86.62 61.77,-30.79 123.7,-64.05 185.73,-99.74l0.07 -0.08c38.16,-21.87 75.03,-42.45 110.5,-61.64l-0.03 -0.09c32.93,-17.84 62.79,-33.35 89.48,-46.47 28.52,-14.02 54.16,-25.76 76.83,-35.1 12.3,-5.07 23.81,-9.46 34.49,-13.17l-0.24 -1.04 25.91 -7.07c18.59,-5.06 35.34,-8.53 50.19,-10.36l0 0.06c15.86,-1.98 29.77,-2.24 41.6,-0.81l17.74 2.16 0 1.51c2.46,0.73 4.86,1.54 7.2,2.45 5.66,2.16 11,4.82 16,7.98l0.74 0 5.42 4.11c11.11,8.41 20.09,18.93 26.79,31.51 6.65,12.45 11.01,26.63 13.02,42.49l-0.05 0.02c0.71,5.68 1.14,11.47 1.22,17.23 0.09,5.85 -0.17,11.7 -0.75,17.4 -4.25,40.84 -16.19,79.9 -35.74,117.08 -19.24,36.62 -45.88,71.25 -79.79,103.81 -12.87,12.36 -26.42,24.83 -40.52,37.31 -11.89,10.53 -25.16,21.95 -39.75,34.23l-0.03 0.36 -9.5 7.92c-16.56,13.83 -34.87,28.74 -54.89,44.68 -18.96,15.11 -39.92,31.49 -62.78,49.04l-21.07 16.19 -0.02 -0.04c-72.25,55.3 -144.67,107.24 -217.17,155.78 -79.59,53.28 -160.33,103.15 -242.12,149.57 -81.43,46.2 -163.38,88.6 -245.74,127.14 -82.57,38.62 -166.01,73.63 -250.24,104.94 -84.02,31.23 -167.66,58.62 -250.89,82.16 -83.02,23.49 -165.17,42.99 -246.38,58.45 -82.42,15.7 -163.99,27.47 -244.6,35.24 -80.69,7.78 -161.16,11.69 -241.32,11.69 -102.54,0 -208.12,-10.32 -316.72,-30.93 -108.27,-20.55 -219.6,-51.37 -333.92,-92.44 -57.35,-20.61 -113.3,-43.9 -167.75,-69.79 -54.66,-25.99 -108.2,-54.79 -160.54,-86.32 -51.92,-31.27 -102.49,-65.27 -151.65,-101.88 -49.02,-36.5 -96.78,-75.79 -143.2,-117.77 -46.6,-42.15 -91.05,-87.42 -133.24,-135.69 -41.96,-48.02 -81.45,-98.86 -118.39,-152.39 -37.39,-54.16 -72.04,-110.71 -103.93,-169.54 -32.03,-59.12 -61.7,-121.24 -88.96,-186.21 -28,-66.75 -51.32,-136.36 -69.89,-208.69 -18.44,-71.8 -32.31,-147.14 -41.62,-225.86l-0.06 -0.06c-9.14,-77.49 -13.72,-157.99 -13.72,-241.36 0.02,-83.47 4.61,-169.31 13.74,-257.38 10.2,-98.28 24.94,-194.18 44.2,-287.58 19.28,-93.5 43.2,-184.97 71.68,-274.3 28.37,-88.95 61.37,-175.59 98.91,-259.76 37.49,-84.02 79.53,-165.51 126.05,-244.36 46.14,-78.21 94.31,-152.87 144.41,-223.9 50.42,-71.45 103.21,-139.84 158.31,-205.14 54.9,-65.07 112.43,-127.38 172.53,-186.84 59.77,-59.16 121.89,-115.23 186.28,-168.17 64.51,-53.03 129.82,-102.62 195.81,-148.68 66.24,-46.22 134,-89.54 203.19,-129.84 69.03,-40.2 139.26,-77.3 210.6,-111.21 71.63,-34.08 144.7,-65.15 219.08,-93.15 73.49,-27.67 146.75,-52.03 219.69,-73 72.84,-20.95 145.03,-38.43 216.46,-52.4 71.75,-14.04 142.86,-24.6 213.32,-31.67l0 -0.08c69.87,-7.02 139.15,-10.54 207.78,-10.54 74.92,0 152.39,5.17 232.31,15.51 79.97,10.33 162.16,25.77 246.45,46.29 42,10.23 83.87,22.41 125.5,36.55 41.56,14.11 81.83,29.82 120.68,47.05 39.46,17.51 77.9,36.72 115.23,57.56 37.12,20.74 73.67,43.43 109.58,68.04 36.77,25.2 71.52,52.35 104.16,81.36 32.5,28.88 63.45,60.18 92.8,93.79 29.38,33.65 56.79,69.25 82.16,106.7 25.67,37.89 49.35,77.63 70.98,119.12 22.7,43.53 41.79,89.93 57.23,139.12 15.44,49.15 27.18,100.8 35.15,154.83 7.91,53.64 12.24,109.56 12.92,167.62 0.67,57.78 -2.23,118.07 -8.73,180.8 -5.37,51.71 -13.61,102.22 -24.66,151.45 -11.1,49.33 -25.1,97.69 -41.99,144.98 -16.82,47.04 -36.49,92.76 -58.97,137.11 -22.3,44 -47.65,87.04 -75.96,128.97 -54.12,80.17 -113.8,153.72 -178.95,220.55 -65.35,67.05 -136.07,127.32 -212.1,180.72 -74.49,52.33 -151.57,98.6 -231.16,138.72 -79.73,40.19 -161.81,74.24 -246.16,102.02 -41.21,13.57 -82.66,25.69 -124.29,36.27 -41.26,10.49 -81.66,19.22 -121.08,26.12 -39.89,6.99 -79.39,12.28 -118.43,15.83l0.73 -25.7 -0.8 25.78c-38.51,3.5 -76.5,5.27 -113.88,5.27 -57.95,0 -115.49,-3.83 -172.58,-11.44 -57.39,-7.66 -114.01,-19.06 -169.85,-34.23 -28.41,-7.72 -56.26,-16.74 -83.47,-27.05 -26.57,-10.05 -52.73,-21.53 -78.35,-34.35 -25.67,-12.84 -50.33,-26.84 -73.88,-41.89 -23.76,-15.21 -46.52,-31.55 -68.21,-49 -22.32,-17.93 -43.41,-37.19 -63.18,-57.61 -19.79,-20.47 -38.38,-42.23 -55.67,-65.2 -17.49,-23.24 -33.54,-47.53 -48.03,-72.74 -14.4,-25.03 -27.68,-51.65 -39.73,-79.76 -12.56,-29.28 -23,-60.13 -31.25,-92.43 -8.32,-32.58 -14.49,-66.36 -18.42,-101.22 -3.91,-34.54 -5.83,-70.6 -5.73,-108.05 0.12,-37.1 2.23,-75.58 6.35,-115.31z" />
            <path class="fil1" d="M8651.08 11524.72c-83.2,0 -156.83,-12.6 -220.87,-37.75 -64.74,-25.43 -119.55,-63.7 -164.31,-114.71 -44.21,-50.38 -80.07,-106.62 -107.45,-168.64 -27.45,-62.1 -46.6,-130.22 -57.41,-204.29 -10.72,-73.39 -14.36,-150 -10.89,-229.72 3.45,-79.19 14.01,-161.93 31.63,-248.13 17.55,-85.71 40.26,-167.94 68.13,-246.59 28.01,-79.04 61.08,-154.25 99.15,-225.53 38.25,-71.63 80.78,-137.37 127.5,-197.13 46.63,-59.65 97.4,-113.16 152.25,-160.42 56.08,-48.34 115.27,-83.28 177.47,-104.74 62.08,-21.44 127.08,-29.51 194.96,-24.19l0.02 -0.06c78.12,5.26 147.92,21.78 209.32,49.55 61.8,27.96 115.01,67.37 159.57,118.14 43.92,50.05 80.47,106.11 109.56,168.11 29.15,62.12 50.8,129.96 64.92,203.45 13.98,72.93 21.34,148.42 21.99,226.41 0.67,77.83 -5.34,157.72 -17.97,239.58l-0.04 0.11c-12.7,82.18 -31.51,161.47 -56.38,237.79 -24.93,76.44 -55.95,149.96 -93.03,220.47 -37.2,70.7 -79.77,135.73 -127.66,194.98 -47.9,59.26 -100.91,112.5 -158.96,159.63 -59.05,47.94 -122.18,83.92 -189.29,107.89 -66.85,23.85 -137.61,35.79 -212.21,35.79zm133.31 -403.37c18.34,1.96 35.57,-2.13 51.61,-12.26 17.14,-10.84 33.66,-28.76 49.49,-53.68 17.44,-27.48 33.38,-59.23 47.7,-95.14 14.54,-36.47 27.64,-77.63 39.19,-123.41 11.66,-46.17 21.72,-94.56 30.13,-145.06 8.41,-50.51 15.25,-103.48 20.47,-158.84 5.18,-54.97 8.02,-108.17 8.49,-159.43 0.48,-51.1 -1.39,-100.36 -5.6,-147.66l0.03 -0.02c-4.19,-46.91 -10.65,-90.15 -19.35,-129.6 -8.63,-39.13 -19.47,-74.49 -32.48,-105.98 -12.2,-29.56 -26.38,-51.44 -42.43,-65.56 -14.85,-13.04 -31.71,-19.58 -50.53,-19.58 -16.39,0 -32.31,5.82 -47.71,17.42 -16.98,12.8 -33.71,32.59 -50.1,59.35 -17.8,29.02 -34.21,61.72 -49.21,98.01 -15.14,36.61 -28.99,77.31 -41.5,121.98 -12.52,44.63 -23.48,91.71 -32.84,141.15 -9.41,49.58 -17.18,101.24 -23.27,154.92 -6.1,53.72 -9.87,105.6 -11.28,155.5 -1.39,49.9 -0.45,97.86 2.81,143.75 3.26,45.83 9.01,88.03 17.16,126.48 8.11,38.2 18.74,73.16 31.79,104.78 12.15,29.41 27.25,51.86 45.26,67.24 17.47,14.93 38.12,23.5 61.85,25.65l0.32 -0.01z" />
            <path class="fil1" d="M7259.94 12864.33c938.51,-133.38 7970.77,-1074 13784.56,-175.49 82.61,12.75 233.3,50.5 143.17,158.23 -126.44,96.29 -155.9,165.8 -332.75,145.47 -751.49,-86.39 -6451.31,-685.66 -13892.3,776.03 -73.98,14.31 -136.98,-48.53 -117.37,-113.64 38.73,-164.86 140.58,-470.64 208.89,-662.01 43.95,-123.15 69.62,-109.26 205.8,-128.59z" />
        </g>
    </g>
</svg>